<svg xmlns="http://www.w3.org/2000/svg" fill="currentColor" height="24" viewBox="0 0 24 24" width="24" focusable="false" aria-hidden="true" style="pointer-events: none; display: inherit; width: 100%; height: 100%;"><path clip-rule="evenodd" d="M17.53 11.53c.293-.293.293-.767 0-1.06-.293-.293-.767-.293-1.06 0l-3.72 3.72V3c0-.414-.336-.75-.75-.75s-.75.336-.75.75v11.19l-3.72-3.72c-.293-.293-.767-.293-1.06 0-.293.293-.293.767 0 1.06l5 5 .53.53.53-.53 5-5Zm1.72 8.97c.414 0 .75-.336.75-.75s-.336-.75-.75-.75H4.75c-.414 0-.75.336-.75.75s.336.75.75.75h14.5Z" fill-rule="evenodd"></path></svg>